<svg width="54" height="51" viewBox="0 0 54 51" fill="none" xmlns="http://www.w3.org/2000/svg">
<path d="M1.80815 0.13689C1.25699 0.306969 0.312139 1.22113 0.143415 1.76326C-0.047805 2.37979 -0.047805 9.52304 0.143415 10.1396C0.323387 10.7242 1.25699 11.6065 1.87564 11.7766C2.13435 11.851 2.62928 11.9041 2.97797 11.9041H3.60787V12.7545V13.6049H2.97797C2.62928 13.6049 2.13435 13.6581 1.87564 13.7325C1.25699 13.9025 0.323387 14.7848 0.143415 15.3695C-0.047805 15.986 -0.047805 23.1293 0.143415 23.7458C0.323387 24.3304 1.25699 25.2127 1.87564 25.3828C2.13435 25.4572 2.62928 25.5103 2.97797 25.5103H3.60787V26.3607V27.2111H2.97797C2.62928 27.2111 2.13435 27.2643 1.87564 27.3387C1.25699 27.5087 0.323387 28.391 0.143415 28.9757C-0.047805 29.5922 -0.047805 36.7355 0.143415 37.352C0.323387 37.9366 1.25699 38.8189 1.87564 38.989C2.22434 39.0847 4.54148 39.1165 11.0767 39.1165H19.8053V42.6988C19.8053 46.2492 19.8166 46.3023 20.0753 46.8232C21.3576 49.4275 29.1301 51.2133 38.2525 50.9795C46.5874 50.7775 52.5827 49.1724 53.73 46.8232L54 46.2917V33.1638V20.036L53.73 19.5045C52.6727 17.3466 47.5548 15.8265 39.906 15.3907L37.5888 15.2632L37.4538 14.9655C37.2739 14.5403 36.4415 13.8813 35.9128 13.7325C35.6654 13.6581 35.1817 13.6049 34.833 13.6049H34.2031V12.7545V11.9041H34.833C35.1817 11.9041 35.6766 11.851 35.9353 11.7766C36.554 11.6065 37.4876 10.7242 37.6675 10.1396C37.8588 9.52304 37.8588 2.37979 37.6675 1.76326C37.4876 1.17862 36.554 0.296337 35.9353 0.126259C35.3054 -0.0438156 2.40431 -0.0438156 1.80815 0.13689ZM35.7216 1.96523L36.0028 2.22034V5.95142V9.6825L35.7216 9.93761L35.4516 10.2034H18.9055H2.35932L2.08936 9.93761L1.80815 9.6825V5.95142V2.22034L2.08936 1.96523L2.35932 1.69948H18.9055H35.4516L35.7216 1.96523ZM9.00703 12.7545V13.6049H7.20731H5.40759V12.7545V11.9041H7.20731H9.00703V12.7545ZM27.0042 12.7545V13.6049H18.9055H10.8067V12.7545V11.9041H18.9055H27.0042V12.7545ZM32.4034 12.7545V13.6049H30.6037H28.8039V12.7545V11.9041H30.6037H32.4034V12.7545ZM33.1795 15.4226C26.2168 15.8478 21.0876 17.4423 20.0753 19.5045C19.8278 19.9934 19.8053 20.1635 19.8053 21.9174V23.8096H11.088H2.35932L2.08936 23.5438L1.80815 23.2887V19.5576V15.8265L2.08936 15.5714L2.35932 15.3057L18.4781 15.3163C27.9153 15.3269 34.0119 15.3695 33.1795 15.4226ZM40.4459 17.1128C45.7663 17.4529 50.3893 18.5478 51.8178 19.834C52.3015 20.2592 52.3015 20.5568 51.8178 20.982C50.5468 22.13 46.5199 23.1824 41.7957 23.6182C39.8947 23.7883 33.9106 23.7883 32.0097 23.6182C27.9153 23.2355 24.4396 22.4171 22.5949 21.3966C21.4588 20.7694 21.3351 20.2486 22.19 19.6639C24.9683 17.7612 32.9433 16.645 40.4459 17.1128ZM22.6174 23.2993C24.6871 24.2241 27.4204 24.8407 31.4248 25.2659C33.8319 25.521 39.9734 25.521 42.3806 25.2659C46.9361 24.7769 49.4782 24.1603 52.1215 22.8741C52.1665 22.8529 52.2003 24.256 52.2003 25.9887V29.1564L51.8178 29.4859C51.3229 29.943 50.0406 30.517 48.6571 30.9209C41.0983 33.1319 27.4766 32.6004 22.5949 29.9005C21.5601 29.3265 21.6051 29.5178 21.6051 25.9568C21.6051 24.2348 21.6388 22.8529 21.695 22.8741C21.74 22.8954 22.1562 23.0867 22.6174 23.2993ZM9.00703 26.3607V27.2111H7.20731H5.40759V26.3607V25.5103H7.20731H9.00703V26.3607ZM19.8053 26.3607V27.2111H15.306H10.8067V26.3607V25.5103H15.306H19.8053V26.3607ZM19.8053 33.1638V37.4158H11.088H2.35932L2.08936 37.15L1.80815 36.8949V33.1638V29.4328L2.08936 29.1776L2.35932 28.9119H11.088H19.8053V33.1638ZM22.6174 31.8032C24.6871 32.728 27.4204 33.3445 31.4248 33.7697C33.8319 34.0248 39.9734 34.0248 42.3806 33.7697C46.9361 33.2808 49.4782 32.6642 52.1215 31.378C52.1665 31.3568 52.2003 32.7599 52.2003 34.4926V37.6603L51.8178 37.9898C50.7268 38.9677 47.3073 39.9776 43.5166 40.4346C38.9274 40.998 32.8646 40.8917 28.579 40.1902C25.4745 39.6693 22.9099 38.8189 21.9875 37.9898L21.6051 37.6603V34.4926C21.6051 32.7599 21.6388 31.3568 21.695 31.378C21.74 31.3993 22.1562 31.5906 22.6174 31.8032ZM22.6174 40.3071C24.6871 41.2319 27.4204 41.8484 31.4248 42.2736C33.8319 42.5287 39.9734 42.5287 42.3806 42.2736C46.9361 41.7846 49.4782 41.1681 52.1215 39.8819C52.1665 39.8606 52.2003 41.2638 52.2003 42.9964V46.1641L51.8178 46.4937C50.5468 47.6417 46.5199 48.694 41.7957 49.1299C39.8722 49.3106 33.8994 49.2999 32.0097 49.1299C27.7578 48.7259 24.1584 47.8543 22.4599 46.8338C22.1225 46.6318 21.785 46.3661 21.7288 46.2492C21.5826 46.0047 21.5488 39.8181 21.695 39.8819C21.74 39.9032 22.1562 40.0945 22.6174 40.3071Z" fill="white"/>
<path d="M3.88929 3.66608C3.60808 3.92119 3.60808 3.94245 3.60808 5.9515C3.60808 8.68337 3.41686 8.50266 6.30766 8.50266C9.19846 8.50266 9.00724 8.68337 9.00724 5.9515C9.00724 3.21962 9.19846 3.40033 6.30766 3.40033C4.18174 3.40033 4.15924 3.40033 3.88929 3.66608ZM7.20752 5.9515V6.80188H6.30766H5.4078V5.9515V5.10111H6.30766H7.20752V5.9515Z" fill="white"/>
<path d="M11.0885 3.66608C10.8073 3.92119 10.8073 3.94245 10.8073 5.9515C10.8073 8.68337 10.6161 8.50266 13.5069 8.50266C15.6328 8.50266 15.6553 8.50266 15.9252 8.23691C16.2065 7.9818 16.2065 7.96054 16.2065 5.9515C16.2065 3.21962 16.3977 3.40033 13.5069 3.40033C11.381 3.40033 11.3585 3.40033 11.0885 3.66608ZM14.4067 5.9515V6.80188H13.5069H12.607V5.9515V5.10111H13.5069H14.4067V5.9515Z" fill="white"/>
<path d="M18.0059 4.25069V5.10107H24.3049H30.6039V4.25069V3.4003H24.3049H18.0059V4.25069Z" fill="white"/>
<path d="M32.4043 4.25069V5.10107H33.3042H34.204V4.25069V3.4003H33.3042H32.4043V4.25069Z" fill="white"/>
<path d="M18.0059 7.6523V8.50269H24.3049H30.6039V7.6523V6.80191H24.3049H18.0059V7.6523Z" fill="white"/>
<path d="M32.4043 7.6523V8.50269H33.3042H34.204V7.6523V6.80191H33.3042H32.4043V7.6523Z" fill="white"/>
<path d="M3.88929 17.2723C3.60808 17.5274 3.60808 17.5487 3.60808 19.5577C3.60808 22.2896 3.41686 22.1089 6.30766 22.1089C9.19846 22.1089 9.00724 22.2896 9.00724 19.5577C9.00724 16.8258 9.19846 17.0065 6.30766 17.0065C4.18174 17.0065 4.15924 17.0065 3.88929 17.2723ZM7.20752 19.5577V20.4081H6.30766H5.4078V19.5577V18.7073H6.30766H7.20752V19.5577Z" fill="white"/>
<path d="M11.0885 17.2723C10.8073 17.5274 10.8073 17.5487 10.8073 19.5577C10.8073 22.2896 10.6161 22.1089 13.5069 22.1089C15.6328 22.1089 15.6553 22.1089 15.9252 21.8431C16.2065 21.588 16.2065 21.5667 16.2065 19.5577C16.2065 16.8258 16.3977 17.0065 13.5069 17.0065C11.381 17.0065 11.3585 17.0065 11.0885 17.2723ZM14.4067 19.5577V20.4081H13.5069H12.607V19.5577V18.7073H13.5069H14.4067V19.5577Z" fill="white"/>
<path d="M36.002 28.9118V29.7622H36.9018H37.8017V28.9118V28.0614H36.9018H36.002V28.9118Z" fill="white"/>
<path d="M3.88929 30.8785C3.60808 31.1336 3.60808 31.1549 3.60808 33.1639C3.60808 35.8958 3.41686 35.7151 6.30766 35.7151C9.19846 35.7151 9.00724 35.8958 9.00724 33.1639C9.00724 30.432 9.19846 30.6127 6.30766 30.6127C4.18174 30.6127 4.15924 30.6127 3.88929 30.8785ZM7.20752 33.1639V34.0143H6.30766H5.4078V33.1639V32.3135H6.30766H7.20752V33.1639Z" fill="white"/>
<path d="M11.0885 30.8785C10.8073 31.1336 10.8073 31.1549 10.8073 33.1639C10.8073 35.8958 10.6161 35.7151 13.5069 35.7151C15.6328 35.7151 15.6553 35.7151 15.9252 35.4493C16.2065 35.1942 16.2065 35.1729 16.2065 33.1639C16.2065 30.432 16.3977 30.6127 13.5069 30.6127C11.381 30.6127 11.3585 30.6127 11.0885 30.8785ZM14.4067 33.1639V34.0143H13.5069H12.607V33.1639V32.3135H13.5069H14.4067V33.1639Z" fill="white"/>
<path d="M36.002 38.2661V39.1165H36.9018H37.8017V38.2661V37.4157H36.9018H36.002V38.2661Z" fill="white"/>
<path d="M36.002 45.9196V46.77H36.9018H37.8017V45.9196V45.0692H36.9018H36.002V45.9196Z" fill="white"/>
</svg>
