<svg width="54" height="51" viewBox="0 0 54 51" fill="none" xmlns="http://www.w3.org/2000/svg">
<path d="M4.00137 0.108634C2.19838 0.526719 0.606268 2.29313 0.173972 4.33129C-0.0579908 5.41831 -0.0579908 35.4263 0.173972 36.5029C0.627355 38.6247 2.23001 40.3597 4.1068 40.7465C4.80269 40.8928 11.2766 40.9033 11.6562 40.7569C12.2993 40.5165 12.4891 39.5863 11.9936 39.095L11.7194 38.8233L8.05018 38.771C4.52856 38.7188 4.3704 38.7083 3.95919 38.4888C3.36874 38.1753 2.70448 37.4122 2.4198 36.691L2.17729 36.1057V26.0717V16.0377L25.0889 16.0063L47.99 15.9854V21.316V26.6466H47.5999C47.1149 26.6466 46.3558 26.981 45.9762 27.3364L45.6915 27.6082L44.9745 27.2946C44.5739 27.1274 44.1416 26.9497 44.015 26.9183C43.8358 26.8661 43.7725 26.7406 43.7198 26.3016C43.5933 25.3819 43.1399 24.7234 42.3597 24.3262C41.8536 24.0649 40.0084 23.9499 39.0805 24.1276C37.9313 24.3366 37.1721 25.1415 37.0561 26.2598L37.0034 26.8138L36.065 27.211L35.1266 27.6082L34.7998 27.326C34.2304 26.8661 33.8508 26.7197 33.176 26.7197C32.7437 26.7197 32.4169 26.7824 32.1216 26.9392C31.5523 27.2319 29.802 29.0087 29.5911 29.4895C29.2643 30.2839 29.4962 31.4336 30.1183 32.0817L30.3819 32.3534L29.9707 33.2837L29.5595 34.2243L29.0007 34.2766C28.347 34.3498 27.9147 34.5484 27.5246 34.9769C26.9657 35.5727 26.8603 35.8967 26.8181 37.3809L26.7759 38.771H23.5074H20.2388L19.933 39.0741C19.4164 39.5863 19.564 40.412 20.2283 40.7465C20.3864 40.8301 21.8731 40.8614 25.0257 40.8614H29.5911L29.9918 41.8021L30.403 42.7533L30.0867 43.0982C29.4224 43.8508 29.2643 44.9378 29.7071 45.7948C29.9813 46.3279 31.6577 47.9375 32.1849 48.1779C32.8386 48.4706 33.5872 48.4497 34.2515 48.1257C34.5467 47.9793 34.863 47.7703 34.9579 47.6658C35.1266 47.4776 35.1688 47.4881 36.065 47.8539L37.0034 48.2302L37.1194 48.9096C37.267 49.7876 37.6466 50.3206 38.3847 50.7073C38.9118 50.9791 39.0173 51 40.3142 51C41.0733 51 41.8746 50.9477 42.0961 50.885C42.9817 50.6133 43.6355 49.7666 43.7409 48.7423C43.7725 48.4288 43.8569 48.1779 43.9201 48.1779C43.9834 48.1779 44.4157 48.0107 44.8796 47.8121L45.7126 47.4463L46.0394 47.7598C46.7037 48.3974 47.8424 48.5751 48.6754 48.1779C49.2237 47.9166 50.995 46.1398 51.2059 45.6381C51.5433 44.8228 51.343 43.7358 50.7314 43.1087L50.4151 42.7846L50.7841 41.9589C50.9845 41.499 51.1532 41.06 51.1532 40.9869C51.1532 40.9137 51.3008 40.8614 51.5328 40.8614C52.2181 40.8614 52.7664 40.6315 53.2619 40.1298C53.884 39.5131 54 39.1055 54 37.4331C54 36.1475 53.9789 36.043 53.7048 35.5204C53.3041 34.7574 52.7347 34.3707 51.8912 34.2871L51.2375 34.2243L50.995 33.5868C50.858 33.2314 50.6787 32.8029 50.5838 32.6252C50.4362 32.343 50.4362 32.3012 50.5838 32.1757C50.6787 32.1026 50.8896 31.7995 51.0583 31.5068C51.6171 30.5452 51.4484 29.5 50.5733 28.5384L50.2148 28.1517L50.1831 16.393L50.1515 4.64485L49.8668 3.79823C49.3713 2.37674 48.338 1.07023 47.2731 0.526719C46.166 -0.0376956 47.2731 -0.00633927 25.0046 0.00411285C13.4908 0.014565 4.21224 0.0563734 4.00137 0.108634ZM45.9129 2.25132C46.5561 2.47081 47.2414 3.1293 47.6316 3.92366L47.9373 4.54033L47.969 9.21243L48.0006 13.895H25.0573H2.11403L2.14566 9.31695C2.17729 4.8539 2.18784 4.73892 2.4198 4.16406C2.80992 3.20246 3.59016 2.43946 4.44421 2.17815C4.59182 2.13635 13.8704 2.09454 25.0679 2.09454C43.4457 2.08408 45.4701 2.10499 45.9129 2.25132ZM41.5583 26.981C41.5583 27.4932 41.6216 27.859 41.7481 28.1099C41.9063 28.4443 42.0223 28.507 42.929 28.7997C43.4773 28.9774 44.3208 29.3223 44.7953 29.5523C45.2803 29.7927 45.7758 29.9912 45.9129 29.9912C46.2081 29.9912 46.5245 29.7822 47.1782 29.1655L47.6737 28.6952L48.4645 29.4686C48.8968 29.8972 49.2553 30.2944 49.2553 30.3571C49.2553 30.4198 49.0233 30.702 48.7281 30.9842C48.4434 31.2664 48.1482 31.6531 48.0849 31.8413C47.9795 32.1653 48.0111 32.2803 48.4961 33.2628C48.7914 33.8481 49.1288 34.6633 49.2448 35.071C49.5611 36.1266 49.7719 36.2939 50.9212 36.367L51.8385 36.4193L51.8702 37.4541C51.8912 38.123 51.8596 38.5306 51.7753 38.6247C51.6909 38.7292 51.4062 38.771 50.8369 38.771C49.7403 38.771 49.5822 38.8964 49.2026 40.0984C49.0444 40.6106 48.707 41.4259 48.4434 41.9276C48.0111 42.7533 47.9795 42.8578 48.0849 43.1818C48.1482 43.3804 48.4434 43.7671 48.7281 44.0493C49.0233 44.3315 49.2553 44.6138 49.2553 44.6765C49.2553 44.8123 47.7581 46.2965 47.6105 46.2965C47.5577 46.2965 47.252 46.0352 46.9357 45.7217C46.1554 44.9378 45.9656 44.9169 44.848 45.4917C44.3419 45.753 43.5195 46.0875 43.0134 46.2338C41.8008 46.5997 41.6638 46.7669 41.6638 47.8644C41.6638 48.4288 41.6216 48.711 41.5162 48.7946C41.4213 48.8782 41.0101 48.9096 40.3353 48.8887L39.2914 48.8573L39.2387 47.948C39.1649 46.8087 38.9962 46.5997 37.9313 46.2861C37.5201 46.1607 36.7082 45.8262 36.1283 45.544C35.1688 45.0632 35.0528 45.0318 34.7049 45.1364C34.5045 45.1991 34.1039 45.4813 33.8086 45.7739C33.524 46.0561 33.2393 46.2965 33.176 46.2965C33.1128 46.2965 32.7226 45.9516 32.2903 45.5231C31.4363 44.6765 31.4152 44.5615 32.0584 44.1121C32.438 43.8403 32.807 43.2654 32.807 42.9519C32.807 42.816 32.5961 42.3038 32.3431 41.8126C32.09 41.3213 31.7737 40.5583 31.6472 40.1298C31.2992 38.9905 31.12 38.8337 29.9813 38.771L29.0639 38.7188L29.0323 37.5377L29.0007 36.367H29.7704C30.287 36.367 30.6561 36.3043 30.9091 36.1789C31.2465 36.0221 31.3098 35.9071 31.6472 34.9037C31.858 34.2975 32.206 33.4822 32.4169 33.0851C32.6277 32.6879 32.807 32.2698 32.807 32.1653C32.807 31.8517 32.5434 31.4336 32.0267 30.9319C31.7632 30.6811 31.5417 30.4198 31.5417 30.3675C31.5417 30.1898 32.9441 28.8415 33.1233 28.8415C33.2182 28.8415 33.4818 29.0296 33.7032 29.27C34.1882 29.7613 34.5889 29.9912 34.9579 29.9912C35.095 29.9912 35.6222 29.7822 36.1072 29.5313C36.6028 29.27 37.3514 28.9565 37.7837 28.8415C38.3108 28.6847 38.6482 28.5175 38.8486 28.3085C39.1122 28.0262 39.1333 27.9322 39.1333 27.1901C39.1333 26.7406 39.1649 26.333 39.2071 26.3016C39.2387 26.2598 39.787 26.2285 40.4196 26.2285H41.5583V26.981Z" fill="white"/>
<path d="M8.97971 4.64482C8.326 4.8225 7.44032 5.38692 7.11346 5.82591C6.52301 6.62027 6.39648 7.00699 6.39648 8.04175C6.39648 8.86747 6.43866 9.11832 6.63899 9.5155C7.02911 10.2994 7.5563 10.822 8.31545 11.1983C8.93754 11.5014 9.12733 11.5432 9.87593 11.5432C10.5824 11.5432 10.8249 11.491 11.3521 11.2506C12.1639 10.8743 12.902 10.1008 13.1972 9.31691C13.5135 8.50165 13.4608 7.2683 13.0918 6.5262C12.3537 5.02109 10.5718 4.21628 8.97971 4.64482ZM10.7932 6.96519C11.4364 7.54005 11.4575 8.4912 10.846 9.05561C10.3609 9.4946 9.85485 9.58867 9.32766 9.33782C8.34708 8.85702 8.16784 7.67593 8.96917 6.95473C9.40146 6.55755 10.3504 6.56801 10.7932 6.96519Z" fill="white"/>
<path d="M18.2457 4.624C16.4216 5.13615 15.3039 6.8503 15.6308 8.63762C15.8522 9.82916 16.5692 10.7385 17.7185 11.2715C18.5514 11.6583 19.7323 11.6583 20.5864 11.2611C21.3455 10.9162 21.9993 10.2786 22.3577 9.51559C22.5897 9.02434 22.6319 8.78394 22.6319 8.04184C22.6319 7.27884 22.5897 7.0698 22.3367 6.55764C21.5986 5.06299 19.7745 4.19546 18.2457 4.624ZM20.0487 6.98618C20.6813 7.44607 20.7129 8.44948 20.1119 9.04525C19.648 9.50514 19.1419 9.58876 18.5514 9.30655C17.9821 9.0348 17.729 8.62716 17.729 8.00004C17.729 7.60286 17.7923 7.45653 18.077 7.14296C18.6147 6.55764 19.3949 6.49493 20.0487 6.98618Z" fill="white"/>
<path d="M30.8787 4.60301C28.7172 5.10471 27.4942 7.48779 28.3693 9.46324C28.6645 10.1113 29.4658 10.9161 30.1617 11.2506L30.7522 11.5432H36.3404C41.9286 11.5432 41.9286 11.5432 42.4452 11.3028C43.2466 10.9474 43.8054 10.4248 44.1955 9.70364C45.0496 8.10447 44.5751 6.18128 43.0568 5.14652C42.1289 4.50894 41.8548 4.48803 36.2877 4.49849C33.5357 4.50894 31.1001 4.55075 30.8787 4.60301ZM41.8653 6.88157C42.5085 7.34146 42.6878 8.16718 42.266 8.78385C41.781 9.5155 41.8442 9.50505 36.488 9.50505C33.8415 9.50505 31.5219 9.47369 31.3321 9.44234C30.8787 9.34827 30.3199 8.78385 30.2355 8.31351C30.1406 7.84316 30.457 7.06971 30.8154 6.88157C31.3321 6.60981 31.7538 6.58891 36.5513 6.60981L41.5068 6.63072L41.8653 6.88157Z" fill="white"/>
<path d="M38.8173 31.3082C37.046 31.7681 35.3906 33.0955 34.6209 34.7051C34.0726 35.8235 33.925 36.6074 33.9883 37.9662C34.0304 38.8128 34.1042 39.1786 34.3362 39.764C35.1059 41.6767 36.466 42.9728 38.4167 43.6521C39.4078 44.0075 41.1369 44.0493 42.1386 43.7462C44.3317 43.0982 46.0293 41.4154 46.683 39.2413C46.9677 38.2902 46.9466 36.7328 46.6408 35.7399C45.966 33.5763 44.0892 31.7994 41.9594 31.2977C41.1264 31.1096 39.5765 31.1096 38.8173 31.3082ZM42.2335 33.6286C44.9538 34.8933 45.6075 38.3425 43.5515 40.4956C41.4638 42.6905 37.8789 42.147 36.5293 39.4295C36.2025 38.771 36.1392 38.5201 36.097 37.7885C36.0443 36.7119 36.2341 36.0012 36.8035 35.1546C37.3201 34.3811 38.1214 33.7749 39.0176 33.4613C40.0193 33.1164 41.2635 33.1791 42.2335 33.6286Z" fill="white"/>
<path d="M16.7083 22.0477C16.5817 22.1 16.4025 22.2568 16.3076 22.3926C16.1073 22.6957 14.0301 31.2038 14.009 31.7995C13.9985 32.134 14.0512 32.2594 14.3359 32.5103C14.9369 33.0433 15.7804 32.8238 16.0335 32.0504C16.276 31.3083 18.1633 23.3333 18.1738 23.0302C18.1738 22.5912 18.0051 22.2881 17.6256 22.1C17.2882 21.9223 17.0562 21.9118 16.7083 22.0477Z" fill="white"/>
<path d="M9.65346 22.9151C9.21062 23.1659 6.23727 26.5838 6.11074 26.9809C5.89987 27.6812 6.08966 28.0157 7.77666 29.8971C8.62017 30.8378 9.41095 31.6948 9.52693 31.7889C9.65346 31.9039 9.91705 31.9771 10.1806 31.9771C10.7922 31.9771 11.1929 31.5694 11.1929 30.9632C11.1929 30.566 11.1085 30.4406 9.82216 28.9982C9.07355 28.162 8.45146 27.4304 8.45146 27.3886C8.45146 27.3468 8.7256 27.0123 9.063 26.636C11.2667 24.1693 11.1929 24.2634 11.1929 23.8139C11.1929 23.0196 10.3388 22.5179 9.65346 22.9151Z" fill="white"/>
<path d="M21.3359 23.0405C20.9669 23.3541 20.8615 23.7617 21.0512 24.1902C21.1251 24.3575 21.7682 25.1414 22.4641 25.9148C23.16 26.6883 23.7399 27.3572 23.7399 27.3886C23.7399 27.4304 23.1389 28.1202 22.4114 28.9355C20.8298 30.7019 20.6611 31.0991 21.2832 31.7053C21.4835 31.9143 21.6628 31.9771 21.9896 31.9771C22.2216 31.9771 22.4957 31.9143 22.5906 31.8412C23.0546 31.4963 25.9647 28.1202 26.0701 27.8171C26.2915 27.1586 26.1228 26.8242 24.9208 25.4654C24.2987 24.7651 23.4869 23.8767 23.1073 23.4795C22.5063 22.8733 22.3692 22.7792 22.0318 22.7792C21.7788 22.7792 21.5468 22.8628 21.3359 23.0405Z" fill="white"/>
<path d="M15.3991 38.9277C14.7875 39.2622 14.7559 40.1192 15.3358 40.6105C15.6099 40.8404 15.7365 40.8718 16.0844 40.83C16.6749 40.7464 16.9912 40.3701 16.9912 39.7639C16.9912 39.3876 16.9384 39.2726 16.6643 39.0427C16.3058 38.7396 15.8314 38.6977 15.3991 38.9277Z" fill="white"/>
</svg>
