<svg width="54" height="51" viewBox="0 0 54 51" fill="none" xmlns="http://www.w3.org/2000/svg">
<path d="M1.69491 0.154728C1.17827 0.350861 0.29259 1.40509 0.134433 2.03028C-0.0448111 2.76579 -0.0448111 38.4136 0.134433 39.1491C0.303134 39.8233 1.17827 40.8408 1.75818 41.0369C2.09558 41.1472 5.7121 41.184 17.131 41.184H32.061V44.8125C32.061 47.3133 32.1032 48.6127 32.1875 48.9559C32.3562 49.6301 33.2314 50.6476 33.8113 50.8437C34.4334 51.0521 46.5587 51.0521 47.1808 50.8437C47.7607 50.6476 48.6358 49.6301 48.8046 48.9559C48.8889 48.6127 48.9311 47.3133 48.9311 44.8125V41.184H50.365C51.1874 41.184 51.9888 41.1227 52.2418 41.0369C52.8217 40.8408 53.6969 39.8233 53.8656 39.1491C54.0448 38.4258 54.0448 2.76579 53.8656 2.0548C53.8023 1.78511 53.5387 1.29477 53.2857 0.976048C52.4527 -0.102703 55.0148 -0.00463486 26.9578 0.00762558C9.12828 0.0198822 1.95851 0.0566597 1.69491 0.154728ZM52.0415 2.26319C52.3051 2.5574 52.3051 2.5574 52.3051 5.20523V7.84082H27H1.69491V5.20523C1.69491 2.5574 1.69491 2.5574 1.95851 2.26319L2.21156 1.95673H27H51.7884L52.0415 2.26319ZM52.3051 24.2059V38.622L52.0415 38.9162C51.799 39.2104 51.7357 39.2226 50.3545 39.2226H48.9311V29.71C48.9311 22.7104 48.8994 20.0626 48.8046 19.7071C48.7413 19.4374 48.4777 18.947 48.2246 18.6283C47.4444 17.6231 47.6869 17.6476 40.5171 17.6476C35.899 17.6476 34.1276 17.6844 33.8113 17.7947C33.2314 17.9909 32.3562 19.0083 32.1875 19.6825C32.0926 20.0626 32.061 22.5878 32.061 29.71V39.2226H17.1416H2.21156L1.95851 38.9162L1.69491 38.622V24.2059V9.80218H27H52.3051V24.2059ZM46.9805 19.9155L47.2441 20.2097V34.3192V48.4288L46.9805 48.723L46.7274 49.0294H40.496H34.2647L34.0116 48.723L33.748 48.4288V34.3192V20.2097L34.0116 19.9155L34.2647 19.609H40.496H46.7274L46.9805 19.9155Z" fill="white"/>
<path d="M5.33308 4.22474C4.80589 4.82541 5.17492 5.87964 5.91299 5.87964C6.34528 5.87964 6.75649 5.40156 6.75649 4.89896C6.75649 4.39636 6.34528 3.91827 5.91299 3.91827C5.71265 3.91827 5.49123 4.0286 5.33308 4.22474Z" fill="white"/>
<path d="M8.70612 4.22474C8.17894 4.82541 8.54797 5.87964 9.28603 5.87964C9.71833 5.87964 10.1295 5.40156 10.1295 4.89896C10.1295 4.39636 9.71833 3.91827 9.28603 3.91827C9.0857 3.91827 8.86428 4.0286 8.70612 4.22474Z" fill="white"/>
<path d="M12.0811 4.22474C11.5539 4.82541 11.923 5.87964 12.661 5.87964C13.0933 5.87964 13.5045 5.40156 13.5045 4.89896C13.5045 4.39636 13.0933 3.91827 12.661 3.91827C12.4607 3.91827 12.2393 4.0286 12.0811 4.22474Z" fill="white"/>
<path d="M5.33195 13.0509L5.06836 13.3451V20.5899V27.8346L5.33195 28.1288L5.585 28.4353H14.3469H23.1088L23.3618 28.1288L23.6254 27.8346V20.5899V13.3451L23.3618 13.0509L23.1088 12.7444H14.3469H5.585L5.33195 13.0509ZM21.9384 20.5899V26.4739H14.3469H6.75537V20.5899V14.7058H14.3469H21.9384V20.5899Z" fill="white"/>
<path d="M7.86269 15.9928C7.58855 16.2993 7.52529 16.7651 7.70454 17.1451C7.75726 17.2677 8.8749 18.0768 10.1823 18.9471C11.4898 19.8052 12.5547 20.553 12.5547 20.5898C12.5547 20.6265 11.4898 21.3743 10.1823 22.2324C8.8749 23.1028 7.75726 23.9118 7.70454 24.0344C7.41985 24.6351 7.83106 25.4932 8.38988 25.4932C8.54804 25.4932 9.85547 24.7086 11.5108 23.6054L14.3577 21.7175L17.1939 23.6054C18.8282 24.6964 20.1462 25.4932 20.3044 25.4932C20.8737 25.4932 21.2744 24.6351 20.9897 24.0221C20.937 23.8996 19.8193 23.0905 18.5119 22.2201C17.2045 21.362 16.1396 20.6265 16.1396 20.5898C16.1396 20.553 17.2045 19.8175 18.5119 18.9594C19.8193 18.089 20.937 17.28 20.9897 17.1574C21.2744 16.5444 20.8737 15.6863 20.3044 15.6863C20.1462 15.6863 18.8282 16.4832 17.1939 17.5742L14.3577 19.462L11.5108 17.5742C9.85547 16.4709 8.54804 15.6863 8.38988 15.6863C8.24227 15.6863 7.99976 15.8212 7.86269 15.9928Z" fill="white"/>
<path d="M25.5761 14.0314C25.4074 14.2153 25.3125 14.4727 25.3125 14.7056C25.3125 14.9385 25.4074 15.1959 25.5761 15.3798L25.8291 15.6863H30.7953H35.7614L36.0144 15.3798C36.1831 15.1959 36.278 14.9385 36.278 14.7056C36.278 14.4727 36.1831 14.2153 36.0144 14.0314L35.7614 13.7249H30.7953H25.8291L25.5761 14.0314Z" fill="white"/>
<path d="M38.2304 14.0314C38.0617 14.2153 37.9668 14.4727 37.9668 14.7056C37.9668 14.9385 38.0617 15.1959 38.2304 15.3798L38.4834 15.6863H43.4496H48.4157L48.6687 15.3798C48.8374 15.1959 48.9323 14.9385 48.9323 14.7056C48.9323 14.4727 48.8374 14.2153 48.6687 14.0314L48.4157 13.7249H43.4496H38.4834L38.2304 14.0314Z" fill="white"/>
<path d="M25.5761 17.954C25.4074 18.1379 25.3125 18.3953 25.3125 18.6282C25.3125 18.8611 25.4074 19.1185 25.5761 19.3024C25.8291 19.6089 25.8502 19.6089 27.843 19.6089C29.8358 19.6089 29.8569 19.6089 30.1099 19.3024C30.2786 19.1185 30.3735 18.8611 30.3735 18.6282C30.3735 18.3953 30.2786 18.1379 30.1099 17.954C29.8569 17.6475 29.8358 17.6475 27.843 17.6475C25.8502 17.6475 25.8291 17.6475 25.5761 17.954Z" fill="white"/>
<path d="M25.5761 21.8768C25.4074 22.0607 25.3125 22.3181 25.3125 22.5511C25.3125 22.784 25.4074 23.0414 25.5761 23.2253C25.8291 23.5317 25.8502 23.5317 27.843 23.5317C29.8358 23.5317 29.8569 23.5317 30.1099 23.2253C30.2786 23.0414 30.3735 22.784 30.3735 22.5511C30.3735 22.3181 30.2786 22.0607 30.1099 21.8768C29.8569 21.5704 29.8358 21.5704 27.843 21.5704C25.8502 21.5704 25.8291 21.5704 25.5761 21.8768Z" fill="white"/>
<path d="M25.5761 25.7997C25.4074 25.9836 25.3125 26.241 25.3125 26.4739C25.3125 26.7068 25.4074 26.9642 25.5761 27.1481C25.8291 27.4546 25.8502 27.4546 27.843 27.4546C29.8358 27.4546 29.8569 27.4546 30.1099 27.1481C30.2786 26.9642 30.3735 26.7068 30.3735 26.4739C30.3735 26.241 30.2786 25.9836 30.1099 25.7997C29.8569 25.4932 29.8358 25.4932 27.843 25.4932C25.8502 25.4932 25.8291 25.4932 25.5761 25.7997Z" fill="white"/>
<path d="M5.33195 30.7029C5.06836 30.9971 5.06836 31.0216 5.06836 33.3385C5.06836 35.6553 5.06836 35.6799 5.33195 35.9741L5.585 36.2805H9.28587H12.9867L13.2398 35.9741C13.5034 35.6799 13.5034 35.6553 13.5034 33.3385C13.5034 31.0216 13.5034 30.9971 13.2398 30.7029L12.9867 30.3964H9.28587H5.585L5.33195 30.7029ZM11.8164 33.3385V34.3192H9.28587H6.75537V33.3385V32.3578H9.28587H11.8164V33.3385Z" fill="white"/>
<path d="M15.453 30.7029C15.1895 30.9971 15.1895 31.0216 15.1895 33.3385C15.1895 35.6553 15.1895 35.6799 15.453 35.9741L15.7061 36.2805H19.407H23.1078L23.3609 35.9741C23.6245 35.6799 23.6245 35.6553 23.6245 33.3385C23.6245 31.0216 23.6245 30.9971 23.3609 30.7029L23.1078 30.3964H19.407H15.7061L15.453 30.7029ZM21.9375 33.3385V34.3192H19.407H16.8765V33.3385V32.3578H19.407H21.9375V33.3385Z" fill="white"/>
<path d="M35.6991 22.8573L35.4355 23.1515V27.4543V31.757L35.6991 32.0512L35.9522 32.3577H40.4966H45.0409L45.294 32.0512L45.5576 31.757V27.4543V23.1515L45.294 22.8573L45.0409 22.5509H40.4966H35.9522L35.6991 22.8573ZM43.8706 27.4543V30.3963H40.4966H37.1226V27.4543V24.5122H40.4966H43.8706V27.4543Z" fill="white"/>
<path d="M38.2304 25.7995C38.0617 25.9834 37.9668 26.2408 37.9668 26.4737C37.9668 26.7066 38.0617 26.9641 38.2304 27.1479L38.4834 27.4544L38.2304 27.7609C38.0617 27.9447 37.9668 28.2022 37.9668 28.4351C37.9668 28.9009 38.378 29.4158 38.7576 29.4158C38.9052 29.4158 39.3586 29.2196 39.7592 28.9867L40.4973 28.5577L41.2354 28.9867C41.636 29.2196 42.0894 29.4158 42.237 29.4158C42.6166 29.4158 43.0278 28.9009 43.0278 28.4351C43.0278 28.2022 42.9329 27.9447 42.7642 27.7609L42.5112 27.4544L42.7642 27.1479C42.9329 26.9641 43.0278 26.7066 43.0278 26.4737C43.0278 26.0079 42.6166 25.493 42.237 25.493C42.0894 25.493 41.636 25.6892 41.2354 25.9221L40.4973 26.3511L39.7592 25.9221C38.8946 25.4195 38.5783 25.3827 38.2304 25.7995Z" fill="white"/>
<path d="M35.6991 34.6256C35.5304 34.8095 35.4355 35.0669 35.4355 35.2998C35.4355 35.5327 35.5304 35.7902 35.6991 35.9741C35.9416 36.2683 36.026 36.2805 37.1226 36.2805C38.2191 36.2805 38.3035 36.2683 38.546 35.9741C38.7147 35.7902 38.8096 35.5327 38.8096 35.2998C38.8096 35.0669 38.7147 34.8095 38.546 34.6256C38.3035 34.3314 38.2191 34.3192 37.1226 34.3192C36.026 34.3192 35.9416 34.3314 35.6991 34.6256Z" fill="white"/>
<path d="M39.9159 34.6256C39.7472 34.8095 39.6523 35.0669 39.6523 35.2998C39.6523 35.5327 39.7472 35.7902 39.9159 35.9741L40.169 36.2805H42.6046H45.0402L45.2933 35.9741C45.462 35.7902 45.5569 35.5327 45.5569 35.2998C45.5569 35.0669 45.462 34.8095 45.2933 34.6256L45.0402 34.3192H42.6046H40.169L39.9159 34.6256Z" fill="white"/>
<path d="M35.6991 38.5485C35.5304 38.7323 35.4355 38.9898 35.4355 39.2227C35.4355 39.4556 35.5304 39.713 35.6991 39.8969L35.9522 40.2034H38.8096H41.6669L41.92 39.8969C42.0887 39.713 42.1836 39.4556 42.1836 39.2227C42.1836 38.9898 42.0887 38.7323 41.92 38.5485L41.6669 38.242H38.8096H35.9522L35.6991 38.5485Z" fill="white"/>
<path d="M43.289 38.5485C43.1203 38.7323 43.0254 38.9898 43.0254 39.2227C43.0254 39.4556 43.1203 39.713 43.289 39.8969C43.5104 40.1666 43.6369 40.2034 44.2906 40.2034C44.9444 40.2034 45.0709 40.1666 45.2923 39.8969C45.461 39.713 45.5559 39.4556 45.5559 39.2227C45.5559 38.9898 45.461 38.7323 45.2923 38.5485C45.0709 38.2788 44.9444 38.242 44.2906 38.242C43.6369 38.242 43.5104 38.2788 43.289 38.5485Z" fill="white"/>
<path d="M35.6991 42.4713C35.5304 42.6552 35.4355 42.9126 35.4355 43.1455C35.4355 43.3785 35.5304 43.6359 35.6991 43.8198L35.9522 44.1262H40.0748H44.1974L44.4505 43.8198C44.6192 43.6359 44.7141 43.3785 44.7141 43.1455C44.7141 42.9126 44.6192 42.6552 44.4505 42.4713L44.1974 42.1649H40.0748H35.9522L35.6991 42.4713Z" fill="white"/>
</svg>
