<svg width="850" height="850" viewBox="0 0 850 850" fill="none" xmlns="http://www.w3.org/2000/svg">
<circle cx="425" cy="425" r="425" fill="#DBE8D4"/>
<path d="M534.478 241.172L534.481 241.185L534.484 241.198C536.693 250.77 535.208 261.618 530.927 270.411L530.898 270.47L530.868 270.529C530.116 272.035 529.08 273.283 528.853 273.558C528.839 273.574 528.829 273.587 528.821 273.596C528.364 274.155 527.825 274.773 527.26 275.405C526.116 276.684 524.555 278.364 522.628 280.399C518.756 284.485 513.164 290.258 505.934 297.636C491.46 312.406 470.264 333.771 442.785 361.293L442.782 361.295L367.462 436.69L442.782 512.086L442.785 512.088C470.138 539.484 491.333 560.848 505.839 575.65C513.085 583.044 518.7 588.84 522.591 592.945C524.528 594.989 526.098 596.678 527.247 597.963C527.815 598.597 528.355 599.217 528.814 599.777C528.822 599.786 528.832 599.799 528.845 599.815C529.072 600.087 530.113 601.341 530.868 602.852L530.875 602.864L530.881 602.876C541.649 624.531 532.522 651.175 510.447 661.253L510.43 661.261L510.412 661.268C507.839 662.434 505.203 663.494 501.98 664.104C498.951 664.678 495.95 664.745 492.849 664.745C492.311 664.745 491.797 664.764 491.132 664.795C491.065 664.799 490.992 664.802 490.915 664.806C490.333 664.834 489.491 664.874 488.663 664.88C486.476 664.896 483.811 664.696 480.721 663.64C475.323 661.794 470.11 657.763 463.681 652.054C452.17 641.83 431.788 621.465 391.813 581.522C385.325 575.04 378.32 568.041 370.754 560.487L370.753 560.486C337.917 527.692 313.515 503.185 297.134 486.539C288.95 478.223 282.728 471.829 278.445 467.329C276.311 465.088 274.6 463.256 273.347 461.863C272.727 461.174 272.15 460.516 271.664 459.928L271.63 459.887C271.337 459.534 270.423 458.432 269.711 457.133L269.645 457.012L269.581 456.89C267.881 453.62 266.102 448.382 265.311 444.556C263.304 434.986 265.119 424.842 269.646 416.368L269.678 416.308L269.711 416.248C270.423 414.949 271.337 413.847 271.63 413.494L271.664 413.453C272.15 412.865 272.727 412.207 273.347 411.518C274.6 410.125 276.311 408.293 278.445 406.051C282.728 401.552 288.95 395.158 297.134 386.842C313.516 370.196 337.917 345.689 370.753 312.895L370.754 312.894C378.32 305.34 385.323 298.342 391.811 291.86C431.788 251.917 452.17 231.551 463.681 221.327C470.11 215.618 475.323 211.587 480.721 209.741C483.811 208.685 486.476 208.485 488.663 208.501C489.49 208.507 490.332 208.547 490.914 208.575C490.992 208.579 491.064 208.582 491.132 208.586C491.766 208.615 492.263 208.635 492.774 208.636C495.941 208.594 498.948 208.657 501.985 209.24C505.204 209.856 507.807 210.929 510.226 212.02L510.294 212.051L510.361 212.082C522.113 217.551 531.519 228.47 534.478 241.172Z" fill="#222732" stroke="#222732" stroke-width="25"/>
</svg>
