<svg width="850" height="850" viewBox="0 0 850 850" fill="none" xmlns="http://www.w3.org/2000/svg">
<circle cx="425" cy="425" r="425" fill="#DBE8D4"/>
<path d="M266.768 420.027C269.299 427.06 280.194 437.718 287.346 440.135C294.939 442.772 305.173 442.552 312.986 439.696C318.818 437.498 322.23 434.531 354.252 402.667L389.245 367.945L389.465 368.495L390.428 575.593L392.547 582.097C395.958 589.129 402.561 595.722 409.603 599.128C417.196 602.864 431.392 602.974 438.764 599.348C446.577 595.612 451.199 591.107 455.381 583.525L459.122 576.603L459.452 368.495L459.672 367.945L494.666 402.667C526.688 434.531 530.099 437.498 535.932 439.696C543.745 442.552 553.979 442.772 561.571 440.135C568.944 437.608 579.618 426.95 582.149 419.588C584.79 412.006 584.57 401.788 581.709 393.986C579.508 387.943 575.767 383.988 512.052 320.478C458.132 266.638 443.716 252.794 439.315 250.816C431.392 247.08 417.416 247.08 409.603 250.706C405.202 252.794 390.236 267.188 336.865 320.478C273.151 383.988 269.409 387.943 267.209 393.986C264.458 401.568 264.237 412.775 266.768 420.027Z" fill="#222732"/>
</svg>
