<svg width="512" height="511" viewBox="0 0 512 511" fill="none" xmlns="http://www.w3.org/2000/svg">
<path d="M222.066 417.301C188.188 452.432 133.015 455.672 95.2583 424.747C72.7721 405.279 61.286 376.005 64.5326 346.44C67.3441 324.642 77.532 304.462 93.402 289.256L154.769 227.847C167.263 215.349 167.263 195.089 154.769 182.591C142.27 170.097 122.01 170.097 109.512 182.591L49.4478 242.677C22.0686 269.079 4.80239 304.237 0.64861 342.044C-7.10984 427.198 55.6309 502.519 140.785 510.277C186.514 514.444 231.735 498.096 264.228 465.651L328.411 401.49C340.905 388.992 340.905 368.732 328.411 356.234C315.913 343.739 295.653 343.739 283.155 356.234L222.066 417.301Z" fill="#73CCA7"/>
<path d="M451.442 30.7535C387.723 -16.0613 299.241 -8.72192 244.107 47.9517L183.701 108.379C171.206 120.877 171.206 141.137 183.701 153.636C196.199 166.13 216.459 166.13 228.957 153.636L290.324 92.333C323.462 58.0596 377.078 54.1989 414.784 83.3713C453.594 115.195 459.259 172.455 427.435 211.265C425.572 213.537 423.601 215.716 421.526 217.797L357.343 281.98C344.849 294.478 344.849 314.738 357.343 327.236C369.842 339.73 390.102 339.73 402.6 327.236L466.783 263.053C527.207 202.436 527.051 104.312 466.434 43.8879C461.724 39.1931 456.716 34.8062 451.442 30.7535Z" fill="#73CCA7"/>
<path d="M183.701 282.036L283.144 182.593C295.644 170.093 315.908 170.093 328.408 182.593C340.907 195.092 340.907 215.357 328.408 227.856L228.964 327.3C216.465 339.799 196.2 339.799 183.701 327.3C171.201 314.801 171.201 294.536 183.701 282.036Z" fill="#73CCA7"/>
</svg>
