<svg width="2374" height="1408" viewBox="0 0 2374 1408" fill="none" xmlns="http://www.w3.org/2000/svg">
<path d="M906.3 385.913C901.633 386.98 893.9 389.647 888.967 392.047C876.567 398.047 860.033 414.58 854.167 426.847C845.367 444.98 845.767 428.847 846.167 708.313L846.567 961.913L850.167 971.78C858.7 994.98 876.567 1012.58 899.5 1020.05L909.233 1023.25H1187.23H1465.23L1474.97 1020.05C1497.9 1012.58 1515.77 994.98 1524.3 971.78L1527.9 961.913L1528.3 708.313C1528.7 428.847 1529.1 444.98 1520.3 426.847C1514.43 414.58 1497.9 398.047 1485.63 392.18C1467.77 383.513 1485.63 383.913 1186.57 384.047C962.7 384.047 913.1 384.447 906.3 385.913ZM1310.03 502.447C1325.63 507.38 1340.17 518.713 1350.03 533.647C1373.9 570.18 1359.9 620.313 1320.43 639.78C1272.43 663.38 1217.37 631.647 1213.1 577.913C1210.3 542.847 1236.17 508.58 1271.63 500.58C1282.3 498.047 1298.57 498.98 1310.03 502.447ZM1093.63 653.113C1096.3 654.58 1100.3 657.513 1102.57 659.78C1104.7 662.18 1135.9 702.447 1171.9 749.513C1231.9 828.047 1237.77 835.247 1244.43 838.98C1252.97 843.78 1263.63 844.313 1272.03 840.447C1274.97 839.113 1287.23 828.313 1299.37 816.447C1322.7 793.647 1325.23 791.913 1337.37 791.913C1345.23 791.913 1355.1 797.38 1360.83 804.847C1371.77 819.38 1442.57 920.98 1445.37 926.447C1450.83 936.447 1448.7 945.647 1440.03 949.78C1435.9 951.78 1414.57 951.913 1192.3 951.913C958.3 951.913 948.967 951.78 944.567 949.38C938.3 946.18 933.9 939.38 933.9 933.38C933.9 930.713 935.367 925.247 936.967 921.247C943.633 905.247 1067.63 661.647 1070.97 658.047C1077.9 650.58 1085.5 648.98 1093.63 653.113Z" fill="#525E65"/>
</svg>
