<svg width="180" height="30" viewBox="0 0 180 30" fill="none" xmlns="http://www.w3.org/2000/svg">
<path d="M44.6044 23.6066C44.4995 23.4016 44.4103 23.166 44.3368 22.8996C44.2633 22.6332 44.2004 22.3514 44.1479 22.0543C43.9065 22.3104 43.6284 22.5512 43.3136 22.7766C42.9987 23.002 42.6524 23.1967 42.2746 23.3607C41.8863 23.5348 41.4613 23.668 40.9995 23.7602C40.5378 23.8627 40.0393 23.9139 39.5041 23.9139C38.633 23.9139 37.8302 23.791 37.0955 23.5451C36.3714 23.2992 35.747 22.9559 35.2223 22.5154C34.6975 22.0748 34.2883 21.5523 33.9944 20.9477C33.7006 20.333 33.5536 19.667 33.5536 18.9498C33.5536 18.0277 33.7373 17.2131 34.1046 16.5061C34.4719 15.7889 35.0229 15.1998 35.7575 14.7387C36.4186 14.3186 37.232 14.001 38.1975 13.7859C39.1735 13.5605 40.2911 13.4477 41.5505 13.4477H43.9905V12.4641C43.9905 12.0748 43.9275 11.7264 43.8016 11.4191C43.6756 11.1014 43.4867 10.8299 43.2349 10.6045C42.9725 10.3689 42.6419 10.1895 42.2431 10.0666C41.8548 9.9334 41.3983 9.8668 40.8736 9.8668C40.4118 9.8668 40.013 9.92316 39.6772 10.0359C39.3414 10.1383 39.0685 10.2869 38.8586 10.4816C38.6697 10.6557 38.5281 10.8658 38.4336 11.1117C38.3496 11.3576 38.3077 11.6291 38.3077 11.9262H33.9314C33.9314 11.2193 34.0889 10.5482 34.4037 9.91291C34.729 9.27766 35.2013 8.71926 35.8205 8.2377C36.4291 7.75615 37.1743 7.37705 38.0558 7.10041C38.9478 6.81352 39.9658 6.67008 41.1097 6.67008C42.1382 6.67008 43.0932 6.79303 43.9747 7.03893C44.8668 7.28484 45.6381 7.64857 46.2888 8.13012C46.9394 8.61168 47.4484 9.22131 47.8157 9.95902C48.1831 10.6865 48.3667 11.5318 48.3667 12.4949V19.626C48.3667 20.5174 48.4244 21.2551 48.5399 21.8391C48.6553 22.4232 48.8232 22.9252 49.0436 23.3453V23.6066H44.6044ZM40.4328 20.6096C40.8736 20.6096 41.2829 20.5584 41.6607 20.4559C42.0385 20.3535 42.3796 20.2203 42.6839 20.0564C42.9882 19.8924 43.2506 19.708 43.471 19.5031C43.6914 19.2879 43.8645 19.0727 43.9905 18.8576V15.999H41.7551C41.073 15.999 40.4905 16.0656 40.0078 16.1988C39.525 16.3217 39.1315 16.4959 38.8271 16.7213C38.5228 16.957 38.2972 17.2387 38.1502 17.5666C38.0033 17.8842 37.9299 18.2326 37.9299 18.6117C37.9299 18.9088 37.9823 19.1854 38.0873 19.4416C38.2027 19.6875 38.3654 19.8975 38.5753 20.0717C38.7852 20.2357 39.0423 20.3689 39.3466 20.4713C39.6615 20.5635 40.0235 20.6096 40.4328 20.6096Z" fill="#65E5ED"/>
<path d="M53.3254 23.6066V6.97746H57.2923L57.5599 9.28279C57.7803 8.97541 58.0217 8.69365 58.2841 8.4375C58.5464 8.18135 58.8245 7.95082 59.1184 7.7459C59.6221 7.39754 60.1731 7.13115 60.7713 6.94672C61.3695 6.76229 62.0044 6.67008 62.676 6.67008C63.5366 6.67008 64.3237 6.79303 65.0373 7.03893C65.751 7.28484 66.3701 7.67418 66.8949 8.20697C67.4091 8.75 67.8079 9.44672 68.0912 10.2971C68.3851 11.1373 68.532 12.1619 68.532 13.3709V23.6066H64.1558V13.4324C64.1558 12.7766 64.0771 12.2387 63.9196 11.8186C63.7727 11.3883 63.5576 11.0502 63.2742 10.8043C62.9909 10.5584 62.6498 10.3893 62.251 10.2971C61.8522 10.1947 61.401 10.1434 60.8972 10.1434C60.4774 10.1434 60.0891 10.1895 59.7323 10.2818C59.386 10.374 59.0764 10.5123 58.8035 10.6967C58.5832 10.8299 58.3838 10.9887 58.2054 11.1732C58.027 11.3576 57.8643 11.5625 57.7174 11.7879V23.6066H53.3254Z" fill="#65E5ED"/>
<path d="M73.8528 6.97746H83.1247V20.1332H87.7371V23.6066H73.8528V20.1332H78.7012V10.4662H73.8528V6.97746ZM78.3864 2.72029C78.3864 2.39242 78.4441 2.09016 78.5596 1.81352C78.6855 1.52664 78.8587 1.28074 79.079 1.07582C79.2994 0.881147 79.5618 0.727459 79.8661 0.614754C80.181 0.502049 80.5273 0.445697 80.9051 0.445697C81.6817 0.445697 82.2956 0.660861 82.7469 1.09119C83.2087 1.51127 83.4395 2.0543 83.4395 2.72029C83.4395 3.38627 83.2087 3.93443 82.7469 4.36475C82.2956 4.78484 81.6817 4.99488 80.9051 4.99488C80.5273 4.99488 80.181 4.93852 79.8661 4.82582C79.5618 4.71311 79.2994 4.5543 79.079 4.34938C78.8587 4.15471 78.6855 3.91906 78.5596 3.64242C78.4441 3.35553 78.3864 3.04816 78.3864 2.72029Z" fill="#65E5ED"/>
<path d="M92.9633 0H102.487V20.1332H107.367V23.6066H92.9633V20.1332H98.0637V3.48873H92.9633V0Z" fill="#65E5ED"/>
<path d="M125.36 13.8012H115.946V20.1178H126.95V23.6066H111.507V1.22951H126.903V4.74898H115.946V10.3893H125.36V13.8012Z" fill="#65E5ED"/>
<path d="M130.838 30V6.97746H134.884L135.041 8.60656C135.272 8.32992 135.524 8.08402 135.797 7.86885C136.07 7.64344 136.364 7.44877 136.678 7.28484C137.056 7.09016 137.471 6.9416 137.922 6.83914C138.384 6.72643 138.877 6.67008 139.402 6.67008C140.483 6.67008 141.438 6.875 142.267 7.28484C143.096 7.68443 143.794 8.25307 144.36 8.99078C144.927 9.73873 145.352 10.6352 145.636 11.6803C145.929 12.7152 146.076 13.8627 146.076 15.1229V15.4457C146.076 16.6547 145.929 17.7766 145.636 18.8115C145.352 19.8463 144.932 20.7377 144.376 21.4857C143.809 22.2439 143.112 22.8381 142.283 23.2684C141.453 23.6988 140.504 23.9139 139.433 23.9139C138.867 23.9139 138.342 23.8525 137.859 23.7295C137.387 23.6168 136.946 23.4477 136.537 23.2223C136.295 23.0789 136.065 22.9201 135.844 22.7459C135.624 22.5717 135.414 22.377 135.214 22.1619V30H130.838ZM141.7 15.1229C141.7 14.4262 141.632 13.7756 141.495 13.1711C141.37 12.5564 141.17 12.0236 140.897 11.5727C140.614 11.1322 140.252 10.7838 139.811 10.5277C139.381 10.2715 138.856 10.1434 138.237 10.1434C137.88 10.1434 137.555 10.1793 137.261 10.251C136.967 10.3125 136.699 10.4047 136.458 10.5277C136.185 10.6711 135.944 10.8504 135.734 11.0656C135.535 11.2807 135.361 11.5318 135.214 11.8186V18.7654C135.351 19.0318 135.514 19.2725 135.702 19.4877C135.902 19.7029 136.127 19.8873 136.379 20.041C136.621 20.1844 136.899 20.2971 137.214 20.3791C137.529 20.4508 137.88 20.4867 138.268 20.4867C138.888 20.4867 139.412 20.3535 139.843 20.0871C140.283 19.8207 140.64 19.457 140.913 18.9959C141.186 18.5348 141.385 18.002 141.511 17.3975C141.637 16.7828 141.7 16.1322 141.7 15.4457V15.1229Z" fill="#65E5ED"/>
<path d="M154.514 9.26742C154.734 8.94979 154.976 8.65779 155.238 8.39139C155.511 8.11475 155.794 7.87398 156.088 7.66906C156.539 7.35143 157.038 7.10553 157.584 6.93135C158.129 6.75717 158.707 6.67008 159.315 6.67008C160.207 6.67008 161.026 6.80328 161.771 7.06967C162.516 7.32582 163.156 7.73053 163.691 8.28381C164.227 8.83709 164.641 9.54918 164.935 10.4201C165.239 11.2807 165.392 12.3207 165.392 13.54V23.6066H161.015V13.5092C161.015 12.915 160.937 12.4027 160.779 11.9723C160.632 11.542 160.417 11.1936 160.134 10.9273C159.85 10.6609 159.509 10.4662 159.111 10.3432C158.712 10.21 158.261 10.1434 157.757 10.1434C157.368 10.1434 157.006 10.1793 156.671 10.251C156.335 10.3227 156.03 10.4303 155.758 10.5738C155.506 10.6967 155.275 10.8453 155.065 11.0195C154.866 11.1936 154.682 11.3883 154.514 11.6035V23.6066H150.138V0H154.514V9.26742Z" fill="#65E5ED"/>
<path fill-rule="evenodd" clip-rule="evenodd" d="M14.3917 12.2065L14.3486 12.1657L2.80328 1.25902L0 4.08748L8.72219 12.3272L0.289976 20.8352L3.18709 23.572L14.3486 12.3103L14.4002 12.2582L14.3694 12.229L14.3917 12.2065ZM8.72219 12.3272L11.5884 15.0349L14.3486 12.25V12.2094L11.5031 9.52131L8.72219 12.3272Z" fill="#9A37FF"/>
<path d="M8.72219 12.3272L11.5884 15.0349L14.3486 12.25V12.2094L11.5031 9.52131L8.72219 12.3272Z" fill="#9A37FF"/>
<path fill-rule="evenodd" clip-rule="evenodd" d="M14.3486 12.25V12.3103L14.4002 12.2582L14.3694 12.229L14.3917 12.2065L14.3486 12.1657V12.2094V12.25Z" fill="#65E5ED"/>
<path fill-rule="evenodd" clip-rule="evenodd" d="M20.2833 1.22951H14.3486V12.1657L14.3917 12.2065L14.3694 12.229L14.4002 12.2582L14.3486 12.3103V23.6066H20.5036C21.5216 23.6066 22.4766 23.4836 23.3687 23.2377C24.2712 22.9918 25.095 22.6383 25.8401 22.1773C26.4803 21.7879 27.068 21.3064 27.6032 20.7326C28.1384 20.1486 28.6054 19.5133 29.0042 18.8268C29.424 18.0584 29.7494 17.2131 29.9802 16.291C30.2111 15.3689 30.3266 14.3904 30.3266 13.3555V11.5113C30.3266 10.4354 30.2006 9.42111 29.9488 8.46824C29.7074 7.51537 29.3611 6.64447 28.9098 5.85553C28.5215 5.21004 28.065 4.61578 27.5402 4.07275C27.026 3.51947 26.4383 3.05328 25.7772 2.67418C25.0216 2.21311 24.182 1.85963 23.2585 1.61373C22.3349 1.35758 21.3432 1.22951 20.2833 1.22951ZM18.8035 20.1332V4.73361H20.2833C20.8185 4.73361 21.3117 4.79508 21.763 4.91803C22.2248 5.03074 22.6445 5.19467 23.0223 5.40984C23.5156 5.69672 23.9459 6.06557 24.3132 6.51639C24.691 6.96721 24.9953 7.47951 25.2262 8.05328C25.4151 8.53484 25.5568 9.06762 25.6512 9.65164C25.7562 10.2254 25.8086 10.835 25.8086 11.4805V13.3555C25.8086 14.042 25.7562 14.6824 25.6512 15.2766C25.5568 15.8607 25.4151 16.3934 25.2262 16.875C24.9953 17.4283 24.7172 17.915 24.3919 18.335C24.077 18.7449 23.7202 19.083 23.3214 19.3494C22.9331 19.6055 22.5029 19.8002 22.0306 19.9334C21.5584 20.0666 21.0494 20.1332 20.5036 20.1332H18.8035Z" fill="#65E5ED"/>
<path d="M173.924 21.1322C173.924 20.3432 174.191 19.6773 174.726 19.1342C175.262 18.5809 176.007 18.3043 176.962 18.3043C177.906 18.3043 178.646 18.5758 179.181 19.1189C179.727 19.6619 180 20.333 180 21.1322C180 21.9314 179.722 22.5973 179.166 23.1301C178.62 23.6527 177.885 23.9139 176.962 23.9139C176.028 23.9139 175.288 23.6475 174.742 23.1148C174.197 22.582 173.924 21.9211 173.924 21.1322Z" fill="white"/>
</svg>
