<svg width="600" height="650" viewBox="0 0 600 650" fill="none" xmlns="http://www.w3.org/2000/svg">
<path d="M241.383 650H40C17.9086 650 0 632.091 0 610V40C0 17.9086 17.9086 0 40 0H249.029C322.087 0 384.83 13.0127 437.257 39.0381C489.684 64.8519 529.854 101.986 557.767 150.439C585.922 198.682 600 256.551 600 324.048C600 391.756 585.801 449.943 557.403 498.608C529.248 547.274 488.471 584.725 435.073 610.962C381.675 636.987 317.112 650 241.383 650Z" fill="#2E3445"/>
<rect x="163.187" y="398.292" width="260.111" height="79.2519" rx="39.6259" fill="#525E65"/>
<path d="M171.732 445.064L171.729 445.053L171.726 445.042C170.122 438.387 171.21 430.95 174.259 424.954L174.284 424.906L174.309 424.857C174.936 423.658 175.779 422.692 175.913 422.539C175.92 422.531 175.925 422.525 175.928 422.522C176.258 422.136 176.635 421.722 177.016 421.314C177.79 420.486 178.835 419.41 180.11 418.121C182.674 415.53 186.371 411.877 191.14 407.217C200.69 397.887 214.67 384.396 232.79 367.022L232.792 367.021L280.739 321.072L232.792 275.123L232.79 275.121C214.754 257.827 200.773 244.336 191.203 234.987C186.423 230.317 182.711 226.65 180.134 224.046C178.853 222.752 177.802 221.67 177.025 220.838C176.643 220.429 176.264 220.014 175.934 219.628C175.931 219.625 175.926 219.619 175.919 219.611C175.788 219.461 174.938 218.491 174.309 217.286L174.304 217.276L174.299 217.266C166.487 202.226 173.305 184.057 188.684 177.336L188.698 177.33L188.711 177.324C190.453 176.569 192.312 175.848 194.599 175.434C196.73 175.047 198.819 175.007 200.869 175.007C201.191 175.007 201.505 174.996 201.939 174.976L202.079 174.97C202.46 174.953 203.044 174.926 203.619 174.922C205.158 174.911 207.078 175.046 209.31 175.777C213.197 177.049 216.86 179.799 221.106 183.409C228.741 189.901 242.23 202.805 268.565 227.996C272.846 232.092 277.467 236.512 282.458 241.282L282.459 241.283C304.11 261.985 320.204 277.459 331.011 287.972C336.41 293.224 340.521 297.269 343.357 300.121C344.768 301.54 345.912 302.712 346.756 303.611C347.174 304.056 347.575 304.494 347.922 304.895C347.929 304.903 347.938 304.913 347.948 304.925C348.143 305.15 348.866 305.981 349.444 306.991L349.501 307.09L349.555 307.189C350.791 309.465 352.034 312.982 352.598 315.59C354.063 322.281 352.721 329.282 349.5 335.055L349.472 335.104L349.444 335.152C348.866 336.163 348.143 336.994 347.948 337.219C347.938 337.231 347.929 337.241 347.922 337.249C347.575 337.65 347.174 338.088 346.756 338.532C345.912 339.431 344.768 340.603 343.357 342.023C340.521 344.875 336.41 348.92 331.011 354.171C320.204 364.685 304.11 380.159 282.459 400.86L282.458 400.861C277.467 405.632 272.847 410.052 268.565 414.147C242.23 439.339 228.741 452.243 221.106 458.735C216.86 462.345 213.197 465.095 209.31 466.367C207.078 467.098 205.158 467.233 203.619 467.222C203.044 467.218 202.46 467.191 202.079 467.174C202.029 467.171 201.982 467.169 201.939 467.167C201.53 467.149 201.228 467.138 200.925 467.137C198.822 467.163 196.731 467.125 194.592 466.733C192.307 466.314 190.468 465.583 188.836 464.879L188.783 464.856L188.731 464.833C180.606 461.213 173.88 453.89 171.732 445.064Z" fill="#DBE8D4" stroke="#DBE8D4" stroke-width="20"/>
</svg>
