<svg width="850" height="850" viewBox="0 0 850 850" fill="none" xmlns="http://www.w3.org/2000/svg">
<circle cx="425" cy="425" r="425" fill="#DBE8D4"/>
<path d="M220.45 213.65C217.159 216.192 211.027 236.533 208.784 252.088C206.241 268.69 207.587 291.724 211.775 307.279L215.065 319.543L209.681 325.675C197.417 339.137 185.451 361.871 179.319 383.408C176.328 394.177 175.43 401.057 174.832 420.651C171.691 515.626 207.886 577.547 282.819 605.965C296.729 611.199 324.399 617.93 341.898 620.173C349.676 621.22 356.406 622.267 356.556 622.566C356.855 622.716 354.462 626.455 351.172 630.942C343.245 641.262 338.01 652.779 335.018 666.091L332.625 676.71L319.763 681.047C308.096 684.786 304.806 685.235 286.559 685.235C267.863 685.235 265.619 684.786 256.496 681.047C238.847 673.569 230.172 665.193 208.484 634.681C200.408 623.314 185.451 611.499 172.887 606.563C161.67 602.225 145.068 601.029 138.786 604.319C136.094 605.665 134 607.909 134 609.255C134 612.246 144.171 622.118 156.286 630.643C169.447 639.916 180.665 654.723 191.733 677.757C202.801 700.79 204.745 703.632 215.065 714.102C239.445 738.78 276.986 747.156 325.895 738.93L331.429 737.883V775.125C331.429 817.154 331.429 817.154 320.361 822.239C314.229 824.931 314.677 825.081 383.777 825.081C422.067 825.081 473.966 824.632 499.393 824.034C541.571 823.136 545.011 822.987 540.823 820.893C531.849 816.555 531.849 816.705 531.849 745.062C531.849 672.522 531.251 665.642 522.127 646.198C519.435 640.365 514.798 632.737 511.657 629.297C508.516 625.857 506.273 622.866 506.572 622.566C506.871 622.267 514.948 620.921 524.371 619.575C575.074 611.798 611.269 596.542 637.593 571.714C668.703 542.398 683.959 506.652 689.044 451.91C693.681 399.711 681.416 355.888 652.998 323.432L648.661 318.646L651.802 308.924C653.896 302.044 655.092 293.818 655.541 279.758C656.438 257.922 655.092 246.554 648.96 226.512C645.221 213.949 644.772 213.35 640.136 212.453C623.384 209.312 584.945 222.773 549.498 244.161L533.345 253.883L516.593 250.144C459.757 237.431 402.772 237.73 343.843 250.892L330.083 253.883L323.651 249.546C314.229 243.264 295.084 232.794 281.025 226.363C257.393 215.744 226.133 209.013 220.45 213.65Z" fill="#222732"/>
</svg>
