<svg width="850" height="850" viewBox="0 0 850 850" fill="none" xmlns="http://www.w3.org/2000/svg">
<circle cx="425" cy="425" r="425" fill="#DBE8D4"/>
<path fill-rule="evenodd" clip-rule="evenodd" d="M630.225 214.367C604.205 189.408 575.819 178.638 527.157 175.39C497.927 173.509 347.211 173.509 318.656 175.561C275.232 178.467 245.325 190.434 220.319 214.367C194.129 239.668 181.964 270.782 178.585 320.871C176.557 352.326 176.388 494.901 178.585 528.066C181.795 578.839 193.96 610.124 220.319 635.596C246.339 660.555 274.725 671.325 323.387 674.573C355.828 676.624 494.716 676.624 527.157 674.573C574.974 671.496 604.036 660.555 629.211 636.45C656.246 610.636 668.749 579.01 671.959 527.724C674.156 493.875 674.156 355.232 671.959 321.897C668.749 271.123 656.584 239.839 630.225 214.367ZM363.599 220.009C312.91 221.035 304.63 221.547 293.31 224.625C257.32 234.54 236.876 255.054 227.245 291.467C224.204 302.921 223.697 311.469 222.683 364.806C222.176 397.8 222.176 452.163 222.683 485.328C223.697 538.495 224.204 547.042 227.245 558.496C236.876 594.909 257.32 615.594 293.31 625.339C304.63 628.416 313.079 628.929 365.795 629.955C398.405 630.467 452.136 630.467 484.915 629.955C537.801 628.929 545.911 628.416 557.569 625.168C592.545 615.765 613.834 594.396 623.296 558.838C626.338 546.871 626.845 539.007 627.858 485.157C628.365 452.163 628.365 397.8 627.858 364.635C626.845 311.298 626.338 302.921 623.296 291.467C613.665 255.054 593.052 234.198 557.231 224.625C544.052 221.206 540.673 221.035 445.546 219.325C432.029 219.154 395.195 219.496 363.599 220.009ZM568.383 262.747C574.804 265.141 582.407 272.492 585.111 279.159C593.39 298.476 578.69 320.7 557.907 320.7C542.025 320.7 528.339 307.024 528.339 290.954C528.339 270.269 549.29 255.396 568.383 262.747ZM466.329 303.092C486.774 310.272 498.094 317.623 514.146 333.522C529.69 349.079 539.321 364.464 546.418 384.808C550.811 397.458 551.149 400.364 551.149 424.982C551.149 449.599 550.811 452.505 546.418 465.156C539.659 484.815 529.521 500.885 514.99 515.758C500.291 530.46 484.408 540.717 464.977 547.555C452.474 552 449.601 552.342 425.271 552.342C400.94 552.342 398.067 552 385.564 547.555C365.457 540.375 350.251 530.631 334.875 514.903C319.161 498.662 312.065 487.209 304.63 466.523C299.561 451.992 299.392 450.454 299.392 424.982C299.561 400.877 299.899 397.287 304.123 384.808C312.91 358.31 331.665 333.351 354.306 318.136C378.974 301.554 396.716 296.596 428.65 297.28C448.926 297.793 452.981 298.476 466.329 303.092ZM345.014 444.471C333.862 401.049 360.896 355.917 405.334 343.95C448.588 332.154 493.702 360.02 505.529 405.664C520.736 464.472 464.302 521.571 406.179 506.185C375.089 497.979 353.124 475.755 345.014 444.471Z" fill="#222732"/>
</svg>
