<svg width="850" height="850" viewBox="0 0 850 850" fill="none" xmlns="http://www.w3.org/2000/svg">
<circle cx="425" cy="425" r="425" fill="#DBE8D4"/>
<path d="M235.627 187.313C220.39 190.598 204.789 202.824 197.854 216.875C187.271 238.499 191.285 263.863 207.891 281.199C229.788 304.009 266.193 304.009 287.999 281.199C304.696 263.772 308.619 238.59 297.944 216.966C293.108 207.112 282.433 196.437 272.853 191.875C260.81 186.127 248.219 184.576 235.627 187.313Z" fill="#222732"/>
<path d="M521.754 335.03C493.561 340.413 469.565 355.742 454.784 377.913L450.496 384.3L450.222 362.585L450.04 340.961H403.508H356.976V496.98V653H405.333H453.689V571.067C453.689 520.155 454.054 485.302 454.693 478.824C457.795 445.521 470.204 427 493.561 420.795C501.864 418.514 515.915 418.058 523.761 419.792C538.816 422.985 547.21 429.463 553.597 442.602C561.808 459.755 562.265 465.777 562.265 568.239V653H610.621H658.978V559.206C658.978 505.557 658.613 460.028 658.066 452.729C654.964 409.755 645.566 382.384 627.136 362.676C614.727 349.446 598.213 340.87 576.042 336.216C564.089 333.753 532.338 333.114 521.754 335.03Z" fill="#222732"/>
<path d="M199.771 341.6C199.406 341.873 199.132 412.128 199.132 497.619V653H247.945H296.758L296.576 497.163L296.302 341.417L248.31 341.143C221.942 341.052 200.044 341.235 199.771 341.6Z" fill="#222732"/>
</svg>
