<svg width="850" height="850" viewBox="0 0 850 850" fill="none" xmlns="http://www.w3.org/2000/svg">
<circle cx="425" cy="425" r="425" fill="#DBE8D4"/>
<path d="M374.656 285.341C363.991 286.111 350.358 288.2 344.971 289.849C335.625 292.707 324.081 303.042 326.17 306.561C326.609 307.111 328.698 307.99 331.007 308.43C341.122 310.299 349.588 316.016 353.437 323.493C359.923 336.247 362.892 376.267 359.374 404.524C357.065 423.215 356.075 427.503 352.557 434.319C343.431 452.461 322.102 437.618 298.903 396.937C290.547 382.314 267.238 335.807 262.07 323.383C255.694 308.32 253.715 305.571 246.568 301.943L240.521 298.865L194.893 299.194C153.663 299.524 148.935 299.744 145.746 301.503C140.579 304.252 138.38 308.1 139.15 313.048C140.249 321.733 166.526 376.707 188.626 416.618C215.343 464.885 250.636 515.02 276.144 541.188C298.353 563.947 332.547 586.156 360.143 595.722C378.395 602.099 388.51 603.638 417.536 604.298C446.232 604.957 454.478 604.078 460.635 599.9C465.583 596.491 467.122 591.764 468.111 577.141C468.991 562.628 471.85 550.204 475.698 543.607C479.216 537.78 486.582 530.963 489.881 530.853C500.986 530.303 507.253 534.921 530.561 561.088C552.441 585.607 560.467 592.753 572.561 598.58C578.058 601.109 584.655 603.748 587.404 604.407C594.001 605.947 683.058 604.188 688.775 602.538C694.492 600.779 700.649 594.732 700.759 590.774C701.089 580.109 699.88 575.711 693.833 566.256C684.267 551.303 671.953 537.34 643.917 509.523C612.692 478.628 610.603 475.769 610.493 465.434C610.493 456.749 614.561 450.152 641.938 413.869C680.529 362.744 695.922 338.006 700.21 320.634C702.738 310.409 701.309 305.461 694.822 302.053C688.665 298.974 679.43 298.645 621.598 299.744L576.189 300.624L572.671 304.582C570.802 306.781 567.064 313.927 564.425 320.524C550.682 354.828 523.855 401.885 505.603 423.654C498.457 432.12 487.352 440.806 483.724 440.806C478.556 440.806 474.268 437.508 471.08 430.911L468.111 424.864L468.441 367.801C468.661 317.006 468.551 310.079 466.902 305.131C463.164 293.587 458.436 290.179 442.604 287.32C433.258 285.671 388.4 284.351 374.656 285.341Z" fill="#222732"/>
</svg>
